<svg
        xmlns="http://www.w3.org/2000/svg"
        width="500"
        height="166"
        viewBox="0 0 500 166"
        fill="#fff"
        stroke="none"
        role="img"
>
    <path
            opacity="0.65"
            fill-rule="evenodd"
            clip-rule="evenodd"
            d="M494.093 52.9772C495.13 52.9793 496.124 53.395 496.857 54.1329C497.589 54.8708 498.001 55.8707 498.001 56.9131V90.9276C498.001 91.9701 497.589 92.97 496.857 93.7079C496.124 94.4458 495.13 94.8614 494.093 94.8636H460.256C459.219 94.8614 458.225 94.4458 457.493 93.7079C456.76 92.97 456.349 91.9701 456.349 90.9276V56.9131C456.349 55.8707 456.76 54.8708 457.493 54.1329C458.225 53.395 459.219 52.9793 460.256 52.9772H494.093ZM443.353 2.01221C444.391 2.0122 445.385 2.42577 446.119 3.16216C446.853 3.89854 447.267 4.89759 447.269 5.94007V39.9545C447.267 40.997 446.853 41.996 446.119 42.7324C445.385 43.4688 444.391 43.8824 443.353 43.8824H409.516C408.483 43.8759 407.494 43.4582 406.766 42.7205C406.038 41.9828 405.631 40.9854 405.633 39.9464V5.93197C405.635 4.89723 406.043 3.90511 406.769 3.17116C407.494 2.43722 408.479 2.02074 409.508 2.01221L443.353 2.01221Z"
    />
    <path
            fill-rule="evenodd"
            clip-rule="evenodd"
            d="M460.24 2.01221H494.076C494.59 2.01221 495.098 2.11407 495.573 2.31197C496.048 2.50987 496.479 2.79992 496.842 3.16551C497.205 3.53111 497.492 3.96507 497.688 4.44255C497.884 4.92004 497.984 5.43167 497.983 5.94816V39.9626C497.983 41.0043 497.572 42.0034 496.839 42.74C496.106 43.4766 495.112 43.8905 494.076 43.8905H460.24C459.203 43.8905 458.208 43.4769 457.474 42.7405C456.74 42.0041 456.326 41.0051 456.324 39.9626V5.94816C456.324 4.90428 456.737 3.90316 457.471 3.16502C458.205 2.42689 459.201 2.01221 460.24 2.01221Z"
    />
    <path
            fill-rule="evenodd"
            clip-rule="evenodd"
            d="M197.693 65.6437C210.165 65.6437 222.813 71.5071 229.806 82.3513V66.2673H247.055V163.451H229.806V147.497C226.148 152.628 221.328 156.812 215.744 159.701C210.161 162.591 203.973 164.104 197.693 164.116C173.185 164.116 148.323 145.893 148.323 114.876C148.323 83.064 173.185 65.6437 197.693 65.6437ZM384.709 65.6437C397.181 65.6437 409.838 71.5071 416.823 82.3513V66.2673H434.08V163.451H416.823V147.497C413.163 152.633 408.339 156.819 402.751 159.709C397.162 162.598 390.97 164.109 384.685 164.116C360.177 164.116 335.315 145.893 335.315 114.876C335.339 83.064 360.201 65.6437 384.685 65.6437H384.709ZM283.777 66.2673V163.451H266.528V66.2673H283.777ZM322.167 66.2673V163.451H304.926V66.2673H322.167ZM20.2239 35.217L67.2015 108.356H69.6185L116.483 35.217H134.707V163.492H117.458V63.7729H117.104L72.688 131.235H64.1078L19.6035 63.7729H19.3377V163.492H2V35.217H20.2239ZM197.693 81.1932C181.322 81.1932 165.572 94.5236 165.572 114.876C165.572 135.228 181.322 148.598 197.693 148.598C214.064 148.598 229.718 135.268 229.718 114.916C229.718 94.5641 213.967 81.1932 197.693 81.1932ZM384.709 81.1932C368.338 81.1932 352.596 94.5236 352.596 114.876C352.596 135.228 368.338 148.598 384.685 148.598C401.032 148.598 416.71 135.268 416.71 114.916C416.71 94.5641 400.992 81.1932 384.685 81.1932H384.709ZM275.197 28.3169C280.949 28.3169 285.67 32.7631 285.67 38.092C285.67 43.4209 280.982 47.8671 275.197 47.8671C269.412 47.8671 264.723 43.4209 264.723 38.092C264.723 32.7631 269.477 28.3169 275.197 28.3169ZM313.586 28.3169C319.339 28.3169 324.06 32.7631 324.06 38.092C324.06 43.4209 319.371 47.8671 313.586 47.8671C307.802 47.8671 303.153 43.4209 303.153 38.092C303.153 32.7631 307.842 28.3169 313.586 28.3169Z"
    />
</svg>