<svg width="132" height="119" viewBox="0 0 132 119" fill="none" xmlns="http://www.w3.org/2000/svg">
    <g clip-path="url(#clip0_612_62083)">
        <path d="M83.902 14.7203C94.321 13.4737 114.281 3.84533 126.802 17.0964C139.715 30.766 124.552 48.6254 122.414 58.364C117.688 79.7516 145.314 108.153 94.3233 101.936C51.6997 96.7379 36.4897 104.791 23.8879 102.775C11.286 100.759 -0.0444336 96.6659 -0.0444336 84.2091C-0.0444336 59.1605 23.4603 56.6921 26.9326 47.8266C32.1556 34.4877 24.9703 7.39605 41.0781 1.09791C57.186 -5.20024 66.7477 16.7701 83.902 14.7203Z"
              fill="url(#paint0_linear_612_62083)"/>
        <path d="M111.217 19.2988H64.181C61.7152 19.2988 59.7163 21.2976 59.7163 23.7631V114.122C59.7163 116.588 61.7152 118.586 64.181 118.586H111.217C113.683 118.586 115.682 116.588 115.682 114.122V23.7631C115.682 21.2976 113.683 19.2988 111.217 19.2988Z"
              fill="url(#paint1_linear_612_62083)"/>
        <path d="M109.679 21.6357H104.638L103.002 24.5407C102.78 24.9427 102.454 25.278 102.058 25.5118C101.663 25.7456 101.212 25.8694 100.752 25.8705H74.637C74.1773 25.8699 73.7262 25.7463 73.3305 25.5124C72.9347 25.2786 72.6089 24.943 72.3867 24.5407L70.7507 21.6357H65.7099C64.6567 21.6523 63.6527 22.085 62.9174 22.8392C62.1821 23.5935 61.7751 24.608 61.7853 25.6612V112.517C61.7751 113.57 62.1821 114.584 62.9174 115.339C63.6527 116.093 64.6567 116.526 65.7099 116.542H109.679C110.734 116.527 111.741 116.095 112.478 115.339C113.215 114.584 113.622 113.567 113.611 112.512V25.6567C113.62 24.6031 113.211 23.5887 112.474 22.8353C111.738 22.0818 110.733 21.6506 109.679 21.6357Z"
              fill="url(#paint2_linear_612_62083)"/>
        <path d="M87.6822 23.7998C88.1946 23.7998 88.61 23.3844 88.61 22.8721C88.61 22.3597 88.1946 21.9443 87.6822 21.9443C87.1698 21.9443 86.7544 22.3597 86.7544 22.8721C86.7544 23.3844 87.1698 23.7998 87.6822 23.7998Z"
              fill="#696969"/>
        <path d="M102.703 79.3994H90.1802V101.939H102.703V79.3994Z" fill="url(#paint3_linear_612_62083)"/>
        <path d="M72.6995 64.2604C72.1729 60.7007 72.1729 56.2657 72.9628 52.9715C73.7527 49.6773 74.2815 42.5578 74.4143 41.1087C74.547 39.6596 75.2041 36.3632 75.9895 34.5181C76.7749 32.673 80.2066 28.9805 85.2159 28.85C90.2251 28.7195 93.5736 30.3913 95.2343 31.7504C98.135 34.122 99.8498 37.8123 99.9803 41.5025C100.093 44.6752 99.4897 50.035 99.8498 52.0489C100.507 55.7391 104.726 58.1108 106.308 60.0887C107.89 62.0665 109.076 64.7014 108.813 67.6019L72.6995 64.2604Z"
              fill="url(#paint4_linear_612_62083)"/>
        <path d="M82.6255 54.1754C82.6255 58.3719 82.1237 61.2521 78.8855 62.0621C75.1949 62.9847 80.6002 71.947 85.6094 71.947C90.6187 71.947 98.8864 62.9892 96.5506 61.9293C92.2007 59.9537 91.4086 58.7679 92.2232 52.9963C92.2839 52.5755 82.6255 54.1754 82.6255 54.1754Z"
              fill="url(#paint5_linear_612_62083)"/>
        <path d="M84.1123 34.0645C91.9569 34.0645 96.3721 41.7149 96.3721 42.6307C96.3721 43.5465 96.7029 42.1807 98.0193 42.1807C99.9974 42.1807 99.9974 44.1586 99.9974 45.0811C99.9974 46.0037 99.6013 49.4307 95.7803 49.4307C95.3842 49.4307 93.4062 54.7027 85.8923 54.7027C79.6971 54.7027 76.4004 49.8267 76.4004 45.3444C76.4004 35.3155 82.7283 34.0645 84.1123 34.0645Z"
              fill="#F9CBBA"/>
        <path d="M76.8797 41.2039L76.6685 41.5381L77.5022 42.0649L77.7134 41.7307L76.8797 41.2039Z" fill="#727171"/>
        <path d="M83.1233 42.8166C83.1233 42.6771 83.1098 42.5736 83.1053 42.5173C83.1008 42.4611 83.094 42.4341 83.0873 42.3936C82.8802 41.0728 81.7978 40.3145 80.1371 40.3145C80.0268 40.3145 79.912 40.3145 79.8018 40.3145C78.5348 40.3887 77.88 40.9737 77.5514 41.5993C77.4881 41.7172 77.4339 41.8398 77.3894 41.9661C77.2663 42.3206 77.2032 42.6933 77.2026 43.0686C77.2026 43.1879 77.2364 45.9578 80.2248 45.9578C81.1542 45.9578 81.8833 45.672 82.3897 45.105C83.058 44.3647 83.1368 43.3409 83.1233 42.8166ZM82.0859 44.8417C81.656 45.321 81.0282 45.5618 80.2158 45.5618C77.6617 45.5618 77.5897 43.3251 77.5897 43.0686C77.5897 42.3936 77.8147 40.8297 79.8243 40.7105C81.5188 40.6115 82.5697 41.282 82.7115 42.5533C82.7835 43.2149 82.6642 44.2049 82.0859 44.8507V44.8417Z"
              fill="#727171"/>
        <path d="M93.2571 42.333C93.2225 42.2045 93.1781 42.0789 93.1243 41.9572C93.0832 41.8624 93.0366 41.7699 92.9848 41.6805C92.636 41.0864 91.9834 40.5554 90.7727 40.4789C88.9387 40.3709 87.7258 41.1292 87.4917 42.5153C87.4917 42.567 87.476 42.6188 87.4692 42.6728C87.4625 42.7268 87.4557 42.8123 87.4512 42.9316C87.4355 43.4401 87.4985 44.4909 88.1938 45.2695C88.7001 45.8342 89.4293 46.1223 90.3586 46.1223C93.3471 46.1223 93.3808 43.3501 93.3808 43.2331C93.3796 42.9289 93.3379 42.6263 93.2571 42.333ZM90.3586 45.7375C89.5463 45.7375 88.9184 45.4945 88.4886 45.0152C87.9103 44.3694 87.791 43.3793 87.863 42.7268C87.9958 41.5387 88.9229 40.8749 90.4284 40.8749C90.5319 40.8749 90.6399 40.8749 90.7502 40.8749C92.7755 40.9942 92.9848 42.5648 92.9848 43.2353C92.9848 43.4873 92.9128 45.7375 90.3586 45.7375Z"
              fill="#727171"/>
        <path d="M87.6137 42.9823C86.736 42.4805 85.4353 42.4805 84.812 42.4805C84.1054 42.4805 83.383 42.6335 83.0117 42.8608L82.8047 42.5233C83.3313 42.1993 84.1864 42.0732 84.812 42.0732C85.4376 42.0732 86.8373 42.0732 87.8094 42.6268L87.6137 42.9823Z"
              fill="#727171"/>
        <path d="M93.0921 42.3547L93.0088 41.9677C93.8773 41.7696 94.7668 41.6781 95.6574 41.6954C97.0076 41.6954 97.568 41.9699 97.5905 41.9812L97.4149 42.3345C97.4149 42.3345 96.8974 42.0914 95.6574 42.0914C94.7947 42.0732 93.9331 42.1616 93.0921 42.3547Z"
              fill="#727171"/>
        <path d="M79.9272 62.4824C80.1905 64.8541 82.9584 69.4579 86.2552 69.5996C89.5519 69.7414 94.2956 64.7213 94.4284 63.5355C94.5611 62.3497 96.5369 68.8076 96.1409 72.3673C95.7448 75.927 94.8244 83.5707 94.8244 83.5707L78.8718 84.8938C78.8718 84.8938 77.9492 76.9846 78.478 73.1616C79.0069 69.3386 79.9272 62.4824 79.9272 62.4824Z"
              fill="url(#paint6_linear_612_62083)"/>
        <path d="M106.957 116.646H68.9263C70.218 111.127 71.9642 105.62 71.9642 105.62C74.5112 106 77.0354 106.519 79.5253 107.175L79.8201 107.247C80.2319 107.346 80.637 107.443 81.0398 107.535C83.2902 108.074 85.6014 108.316 87.9146 108.255C88.4772 108.255 89.0645 108.208 89.6698 108.152C90.7792 108.053 91.9472 107.889 93.1263 107.691C95.4464 107.301 97.8048 106.777 99.8188 106.34C102.384 105.791 104.392 105.393 105.051 105.614C105.71 105.834 106.388 110.636 106.957 116.646Z"
              fill="#696969"/>
        <path d="M81.3889 60.4988C81.3214 60.9488 81.0153 62.5644 80.7138 64.8528C80.7138 64.909 80.7003 64.9631 80.6913 65.0216C80.5382 66.2096 80.3852 67.5687 80.2682 69.0381C80.0769 71.3294 80.0138 73.6296 80.0792 75.928C80.1219 77.2781 80.2007 79.796 80.3042 83.0722C80.3207 83.6167 80.338 84.183 80.356 84.771C80.4775 88.7988 80.626 93.7176 80.7835 98.8862C80.8713 101.739 80.9613 104.669 81.0536 107.565V107.747C81.1098 109.626 81.1706 111.491 81.2291 113.312C81.2651 114.45 81.3011 115.562 81.3371 116.665H65.7153C64.662 116.648 63.6581 116.215 62.9228 115.461C62.1875 114.707 61.7805 113.692 61.7907 112.639V75.8605C64.2818 70.9417 67.8081 66.0814 71.9037 64.621L72.8173 64.297C74.5614 63.6827 76.1523 63.1359 77.3653 62.7039L77.9684 62.4789C78.0786 62.4384 78.1934 62.3934 78.3082 62.3439C78.4837 62.2696 78.6592 62.1864 78.8392 62.0986H78.8505C78.927 62.0559 79.0058 62.0199 79.0755 61.9749C80.2187 61.3696 81.2898 60.573 81.3889 60.375C81.4069 60.3548 81.4046 60.3975 81.3889 60.4988Z"
              fill="url(#paint7_linear_612_62083)"/>
        <path d="M77.6245 83.6117C77.9981 83.0829 96.156 80.9746 96.6556 81.3616C97.1551 81.7486 100.51 110.613 100.137 111.414C99.7633 112.215 80.7345 113.786 80.2371 113.127C79.7398 112.468 77.6245 83.6117 77.6245 83.6117Z"
              fill="url(#paint8_linear_612_62083)"/>
        <path d="M93.2731 108.326C91.4256 108.853 91.4256 109.249 88.7905 109.118C86.1553 108.988 80.75 107.667 80.354 107.543C79.9579 107.419 76.7939 105.293 76.5284 104.643C76.2629 103.992 76.2651 102.138 76.5284 100.952C76.7917 99.7666 77.469 97.7032 78.2431 97.3927C78.9002 97.1295 80.3382 98.5988 80.7478 98.8418C82.0642 99.6339 84.9649 100.16 84.9649 100.16C84.9649 100.16 84.7016 98.9746 84.3055 98.5853C83.9095 98.196 83.3109 96.8122 83.6462 96.4769C84.0423 96.0809 85.6242 97.7955 86.2836 98.1893C86.9429 98.5831 87.339 100.439 88.1289 100.694C88.9187 100.948 89.3148 101.069 91.8217 101.069L93.2731 108.326Z"
              fill="url(#paint9_linear_612_62083)"/>
        <path d="M107.191 118.67L107.168 118.683C107.169 118.679 107.169 118.674 107.168 118.67H107.191Z"
              fill="url(#paint10_linear_612_62083)"/>
        <path d="M113.621 71.8118V104.07C112.629 105.249 111.81 105.949 111.438 106.063C111.438 106.108 111.425 106.138 111.409 106.147C111.393 106.156 111.31 106.201 111.263 106.23C111.099 107.13 111.735 111.918 112.262 115.647C111.559 116.282 110.645 116.634 109.697 116.635H91.8177C91.7907 114.468 91.7592 112.809 91.7592 112.809C91.7592 112.809 99.7997 112.085 100.063 111.558C100.07 111.542 100.073 111.524 100.074 111.506C100.11 111.218 100.045 109.999 99.9302 109.979C96.8015 110.545 93.6136 110.713 90.4428 110.478C90.2874 110.493 90.1306 110.477 89.9815 110.431C89.8892 110.42 89.8104 109.916 89.7564 109.137C89.7339 108.845 89.7137 108.512 89.6979 108.152C89.5944 105.901 89.6034 102.582 89.7767 101.016C89.8307 100.53 89.9004 100.215 89.986 100.15C90.0468 100.118 90.1152 100.102 90.184 100.105C90.6633 100.074 91.8875 100.24 93.4942 100.26C94.3403 100.229 95.236 100.193 96.0641 100.143C97.0179 100.074 97.9603 99.8946 98.8725 99.6077C98.9783 99.3355 98.967 98.4692 98.8725 97.2473C98.706 95.0265 98.2762 91.6445 97.8216 88.5843C97.8229 88.5791 97.8229 88.5737 97.8216 88.5686C97.2703 84.8221 96.6852 81.5639 96.5119 81.5076C96.2351 81.4154 95.6725 81.4424 95.1122 81.4941C94.3088 81.5661 93.5077 81.6876 93.537 81.5706C93.5475 81.5411 93.5566 81.5111 93.564 81.4806C93.7016 80.7914 93.8008 80.095 93.861 79.3947C93.9038 78.992 93.9443 78.5532 93.9848 78.0874C94.0365 77.4686 94.0816 76.8048 94.1221 76.1253C94.2053 74.6514 94.2436 73.1101 94.1963 71.8163C94.1558 70.7384 93.9713 69.1476 93.7463 67.451C93.6862 67.0325 93.6247 66.6109 93.5617 66.1864C93.5122 65.8579 93.4627 65.5316 93.411 65.2076C92.9114 61.9921 92.3601 59.0332 92.3601 59.0332C92.501 59.1247 92.6329 59.2294 92.7539 59.346C93.6945 60.1243 94.7134 60.803 95.7941 61.3711C96.1976 61.5916 96.6417 61.8166 97.1263 62.0461C97.7834 62.3544 98.5215 62.6694 99.3451 62.9777C101.073 63.628 104.82 64.9263 108.7 67.5792C109.582 68.1841 110.432 68.8345 111.247 69.5279C112.084 70.24 112.877 71.0027 113.621 71.8118Z"
              fill="url(#paint11_linear_612_62083)"/>
        <path d="M99.894 99.3424L99.8354 99.0837C103.211 98.3096 105.702 95.8525 106.85 92.1667C108.139 88.0242 107.394 83.3327 105.036 80.7608L105.229 80.583C107.649 83.2202 108.418 88.0085 107.102 92.2432C105.932 96.0257 103.373 98.5459 99.894 99.3424Z"
              fill="url(#paint12_linear_612_62083)"/>
        <path d="M78.8994 85.0075C78.2682 85.2704 77.2168 85.2704 77.428 84.875" stroke="url(#paint13_linear_612_62083)"
              stroke-width="0.200475" stroke-linecap="round" stroke-linejoin="round"/>
        <path d="M79.2102 88.4275C78.579 88.6903 77.5253 88.6903 77.7365 88.2949"
              stroke="url(#paint14_linear_612_62083)" stroke-width="0.200475" stroke-linecap="round"
              stroke-linejoin="round"/>
        <path d="M79.4358 91.9867C78.8045 92.2495 77.7509 92.2495 77.9621 91.8564"
              stroke="url(#paint15_linear_612_62083)" stroke-width="0.200475" stroke-linecap="round"
              stroke-linejoin="round"/>
        <path d="M79.7034 95.6752C79.0721 95.9403 78.0185 95.9403 78.2297 95.5449"
              stroke="url(#paint16_linear_612_62083)" stroke-width="0.200475" stroke-linecap="round"
              stroke-linejoin="round"/>
        <path d="M80.7852 108.062C80.1539 108.325 79.1025 108.325 79.3137 107.93"
              stroke="url(#paint17_linear_612_62083)" stroke-width="0.200475" stroke-linecap="round"
              stroke-linejoin="round"/>
        <path d="M81.1667 111.777C80.5355 112.04 79.4841 112.04 79.693 111.646" stroke="url(#paint18_linear_612_62083)"
              stroke-width="0.200475" stroke-linecap="round" stroke-linejoin="round"/>
        <path d="M81.8493 81.7474C81.1922 81.6169 80.6633 81.7474 80.5328 81.8801C80.4023 82.0129 80.8726 85.5929 81.0594 85.9664C81.1922 86.2296 82.3781 85.9664 82.3781 85.8336C82.3781 85.5704 81.8493 81.7474 81.8493 81.7474Z"
              fill="url(#paint19_linear_612_62083)"/>
        <path d="M81.6257 88.4946C82.0488 88.0716 83.2662 88.1234 83.5317 88.1774C83.8333 88.2381 84.1123 89.9235 83.849 90.1867C83.5857 90.45 82.0488 90.6098 81.8372 90.3982C81.6257 90.1867 81.4142 88.7061 81.6257 88.4946Z"
              stroke="url(#paint20_linear_612_62083)" stroke-width="0.13365" stroke-miterlimit="10"/>
        <path d="M94.6642 90.4973C93.7753 90.3375 88.442 91.1386 87.8479 91.6224C87.2538 92.1061 88.1449 97.5402 88.298 98.0195C88.451 98.4988 95.112 97.3805 95.409 97.061C95.7061 96.7414 94.6642 90.4973 94.6642 90.4973Z"
              fill="url(#paint21_linear_612_62083)"/>
        <path d="M95.9984 91.6096C95.0982 91.4499 89.7762 92.2487 89.1844 92.7347C88.5925 93.2207 89.4814 98.6526 89.6344 99.1341C89.7874 99.6156 96.4507 98.4928 96.7455 98.1733C97.0403 97.8538 95.9984 91.6096 95.9984 91.6096Z"
              fill="url(#paint22_linear_612_62083)"/>
        <path d="M75.2803 74.7719C75.1961 74.7712 75.1132 74.7504 75.0386 74.7113C74.964 74.6723 74.8997 74.616 74.8512 74.5472C74.8026 74.4784 74.771 74.399 74.7592 74.3156C74.7473 74.2322 74.7555 74.1472 74.783 74.0676C75.008 73.4241 75.1273 72.3215 75.2623 71.0457C75.5683 68.1452 75.9869 64.1715 78.1675 61.5186C78.2118 61.4651 78.2662 61.4209 78.3277 61.3884C78.3891 61.356 78.4563 61.3359 78.5255 61.3295C78.5946 61.323 78.6644 61.3302 78.7308 61.3507C78.7972 61.3711 78.8588 61.4045 78.9123 61.4488C78.9658 61.4932 79.0101 61.5476 79.0425 61.609C79.075 61.6704 79.095 61.7376 79.1015 61.8068C79.108 61.8759 79.1008 61.9457 79.0803 62.0121C79.0598 62.0785 79.0264 62.1401 78.9821 62.1936C77.0041 64.6013 76.6035 68.3928 76.311 71.1604C76.1669 72.5105 76.0454 73.6626 75.7754 74.4231C75.7393 74.5255 75.6723 74.6141 75.5836 74.6766C75.4949 74.7392 75.3888 74.7725 75.2803 74.7719Z"
              fill="#979697"/>
        <path d="M75.9103 73.8139C75.6916 73.7469 75.464 73.7136 75.2352 73.7149C75.1001 73.7143 74.9653 73.7263 74.8324 73.7509C73.57 73.9759 72.6001 75.2675 72.6001 76.8133C72.6001 78.5212 73.7815 79.9118 75.2352 79.9118C76.6889 79.9118 77.8726 78.5212 77.8726 76.8133C77.8816 75.3755 77.0445 74.1627 75.9103 73.8139ZM75.2352 78.8565C74.3644 78.8565 73.66 77.9406 73.66 76.8133C73.66 75.686 74.3711 74.7702 75.2352 74.7702C76.0994 74.7702 76.8105 75.686 76.8105 76.8133C76.8105 77.9406 76.1174 78.8565 75.2442 78.8565H75.2352Z"
              fill="#979697"/>
        <path d="M98.5982 74.9369C98.4585 74.9369 98.3246 74.8814 98.2259 74.7827C98.1271 74.6839 98.0716 74.55 98.0716 74.4104C98.0716 68.3012 96.6584 64.0597 95.7245 61.265C95.6801 61.132 95.6903 60.9867 95.753 60.8611C95.8156 60.7356 95.9256 60.6401 96.0587 60.5956C96.1918 60.5512 96.3371 60.5614 96.4627 60.6241C96.5882 60.6867 96.6837 60.7967 96.7282 60.9298C97.6846 63.7964 99.127 68.1302 99.127 74.4104C99.127 74.4797 99.1133 74.5483 99.0867 74.6124C99.0601 74.6764 99.0211 74.7345 98.972 74.7835C98.9229 74.8324 98.8646 74.8711 98.8004 74.8975C98.7363 74.9238 98.6675 74.9372 98.5982 74.9369Z"
              fill="#979697"/>
        <path d="M102.824 89.0009C102.698 89.0018 102.576 88.9561 102.482 88.8727C102.43 88.8276 102.386 88.7727 102.355 88.711C102.324 88.6493 102.305 88.582 102.3 88.5131C102.295 88.4441 102.303 88.3748 102.325 88.3091C102.346 88.2434 102.381 88.1826 102.426 88.1301C104.289 85.97 103.915 81.796 102.619 78.9676C101.55 76.6319 99.9908 75.2931 98.3436 75.2931C94.617 75.2931 93.2241 79.3163 92.7988 81.0467C92.7514 81.1635 92.6637 81.2595 92.5516 81.3171C92.4395 81.3748 92.3105 81.3903 92.1879 81.3609C92.0653 81.3315 91.9573 81.2591 91.8836 81.1568C91.8099 81.0546 91.7753 80.9293 91.7861 80.8037C92.8123 76.6387 95.2066 74.249 98.3548 74.249C100.432 74.249 102.34 75.8129 103.589 78.5378C105.059 81.7442 105.41 86.3098 103.236 88.8299C103.184 88.887 103.12 88.9318 103.049 88.9614C102.978 88.991 102.901 89.0045 102.824 89.0009Z"
              fill="#979697"/>
        <path d="M102.108 90.4483C102.726 90.4483 103.227 89.9474 103.227 89.3296C103.227 88.7118 102.726 88.2109 102.108 88.2109C101.49 88.2109 100.989 88.7118 100.989 89.3296C100.989 89.9474 101.49 90.4483 102.108 90.4483Z"
              fill="#979697"/>
        <path d="M103.493 88.5041C103.307 88.1956 103.023 87.958 102.687 87.829C102.501 87.7554 102.302 87.718 102.102 87.7188C101.665 87.7188 101.246 87.8923 100.937 88.2012C100.628 88.5101 100.455 88.929 100.455 89.3659C100.455 89.8027 100.628 90.2216 100.937 90.5305C101.246 90.8394 101.665 91.013 102.102 91.013C102.305 91.0142 102.507 90.976 102.696 90.9005C103.006 90.7812 103.273 90.5707 103.461 90.2967C103.649 90.0227 103.749 89.6982 103.749 89.3659C103.747 89.0602 103.658 88.7614 103.493 88.5041ZM102.471 88.9113C102.539 88.9655 102.594 89.0338 102.633 89.1116C102.672 89.1893 102.693 89.2745 102.696 89.3614C102.697 89.3726 102.697 89.3839 102.696 89.3951C102.688 89.5087 102.647 89.6177 102.579 89.7089C102.511 89.8001 102.418 89.8698 102.311 89.9096C102.204 89.9495 102.088 89.9578 101.977 89.9336C101.866 89.9094 101.764 89.8537 101.683 89.7732C101.603 89.6926 101.547 89.5906 101.523 89.4793C101.499 89.368 101.507 89.2521 101.547 89.1454C101.587 89.0386 101.656 88.9456 101.748 88.8774C101.839 88.8092 101.948 88.7686 102.061 88.7606H102.104C102.24 88.767 102.37 88.8202 102.471 88.9113Z"
              fill="#979697"/>
        <path d="M102.027 90.0615C102.391 90.0615 102.686 89.7668 102.686 89.4033C102.686 89.0398 102.391 88.7451 102.027 88.7451C101.664 88.7451 101.369 89.0398 101.369 89.4033C101.369 89.7668 101.664 90.0615 102.027 90.0615Z"
              fill="white"/>
        <path d="M69.1451 82.1875C67.7139 86.9645 65.0945 95.8549 67.1536 105.422"
              stroke="url(#paint23_linear_612_62083)" stroke-width="0.13365" stroke-miterlimit="10"/>
        <path d="M70.2922 33.9794L67.0113 30.6897V29.2136C67.0101 28.7318 66.8181 28.27 66.4774 27.9293C66.1366 27.5886 65.6749 27.3967 65.193 27.3955H34.9643C34.4824 27.3967 34.0206 27.5886 33.6799 27.9293C33.3391 28.27 33.1472 28.7318 33.146 29.2136V50.2659C33.1472 50.7478 33.3391 51.2095 33.6799 51.5502C34.0206 51.8909 34.4824 52.0829 34.9643 52.084H65.1907C65.673 52.0835 66.1354 51.8918 66.4766 51.551C66.8178 51.2102 67.0101 50.7482 67.0113 50.2659V38.5652L70.2945 35.2823C70.3808 35.1971 70.4493 35.0956 70.496 34.9837C70.5427 34.8717 70.5666 34.7516 70.5664 34.6304C70.5662 34.5091 70.5419 34.3891 70.4948 34.2773C70.4477 34.1656 70.3789 34.0643 70.2922 33.9794Z"
              fill="url(#paint24_linear_612_62083)"/>
        <path d="M42.8023 37.1373C43.4418 37.1155 44.0678 37.3239 44.5666 37.7246C45.0391 38.1191 45.2754 38.7379 45.2754 39.581C45.2812 40.0167 45.1938 40.4486 45.0189 40.8478C44.7022 41.5802 44.1119 42.1599 43.3739 42.4634C43.0178 42.6134 42.6351 42.69 42.2487 42.6884C41.6093 42.7102 40.9832 42.5018 40.4845 42.1011C40.0119 41.7073 39.7756 41.0908 39.7756 40.2447C39.7703 39.8091 39.8577 39.3772 40.0322 38.9779C40.3481 38.2456 40.9388 37.6663 41.6772 37.3646C42.0327 37.2127 42.4157 37.1354 42.8023 37.1373Z"
              fill="white"/>
        <path d="M50.4002 37.1373C51.0396 37.1155 51.6657 37.3239 52.1644 37.7246C52.637 38.1191 52.8733 38.7379 52.8733 39.581C52.8791 40.0167 52.7916 40.4486 52.6168 40.8478C52.3 41.5793 51.7108 42.1588 50.974 42.4634C50.6178 42.6129 50.2352 42.6894 49.8488 42.6884C49.2094 42.7102 48.5834 42.5018 48.0846 42.1011C47.612 41.7073 47.3757 41.0908 47.3757 40.2447C47.368 39.6295 47.5451 39.0261 47.8841 38.5126C48.2231 37.9991 48.7084 37.5992 49.2773 37.3646C49.6322 37.2133 50.0143 37.1359 50.4002 37.1373Z"
              fill="white"/>
        <path d="M58.003 37.1373C58.6425 37.1155 59.2685 37.3239 59.7673 37.7246C60.2398 38.1191 60.4761 38.7379 60.4761 39.581C60.4819 40.0167 60.3945 40.4486 60.2196 40.8478C59.9029 41.5802 59.3126 42.1599 58.5746 42.4634C58.2185 42.6134 57.8358 42.69 57.4494 42.6884C56.81 42.7102 56.1839 42.5018 55.6852 42.1011C55.2126 41.7073 54.9763 41.0908 54.9763 40.2447C54.971 39.8091 55.0584 39.3772 55.2328 38.9779C55.5488 38.2456 56.1394 37.6663 56.8778 37.3646C57.2334 37.2127 57.6164 37.1354 58.003 37.1373Z"
              fill="white"/>
    </g>
    <defs>
        <linearGradient id="paint0_linear_612_62083" x1="-0.0444336" y1="51.5326" x2="131.958" y2="51.5326"
                        gradientUnits="userSpaceOnUse">
            <stop stop-color="#FADDE7"/>
            <stop offset="0.14" stop-color="#FAD9E1"/>
            <stop offset="0.49" stop-color="#F9D3D8"/>
            <stop offset="1" stop-color="#F9D1D5"/>
        </linearGradient>
        <linearGradient id="paint1_linear_612_62083" x1="59.7163" y1="68.9437" x2="115.682" y2="68.9437"
                        gradientUnits="userSpaceOnUse">
            <stop offset="0.01" stop-color="#69C2BD"/>
            <stop offset="0.02" stop-color="#68C2BC"/>
            <stop offset="0.18" stop-color="#54BCB5"/>
            <stop offset="0.36" stop-color="#46B8AF"/>
            <stop offset="0.59" stop-color="#3EB6AC"/>
            <stop offset="1" stop-color="#3CB5AB"/>
        </linearGradient>
        <linearGradient id="paint2_linear_612_62083" x1="61.3983" y1="23.5394" x2="113.991" y2="114.638"
                        gradientUnits="userSpaceOnUse">
            <stop stop-color="#D6E9E8"/>
            <stop offset="0.52" stop-color="#D3E5E6"/>
            <stop offset="1" stop-color="#CBDAE2"/>
        </linearGradient>
        <linearGradient id="paint3_linear_612_62083" x1="90.1802" y1="90.6681" x2="102.703" y2="90.6681"
                        gradientUnits="userSpaceOnUse">
            <stop stop-color="#F1F1F1"/>
            <stop offset="0.58" stop-color="#EEEEEE"/>
            <stop offset="1" stop-color="#E6E5E5"/>
        </linearGradient>
        <linearGradient id="paint4_linear_612_62083" x1="90.5942" y1="28.8432" x2="90.5942" y2="67.6019"
                        gradientUnits="userSpaceOnUse">
            <stop stop-color="#EE8091"/>
            <stop offset="0.4" stop-color="#ED7E8F"/>
            <stop offset="0.61" stop-color="#EB7689"/>
            <stop offset="0.78" stop-color="#E7687F"/>
            <stop offset="0.92" stop-color="#E25672"/>
        </linearGradient>
        <linearGradient id="paint5_linear_612_62083" x1="87.3107" y1="52.9243" x2="87.3107" y2="71.947"
                        gradientUnits="userSpaceOnUse">
            <stop stop-color="#E7B2A2"/>
            <stop offset="0.05" stop-color="#EBB8A7"/>
            <stop offset="0.2" stop-color="#F3C3B3"/>
            <stop offset="0.41" stop-color="#F8CAB9"/>
            <stop offset="1" stop-color="#F9CCBB"/>
        </linearGradient>
        <linearGradient id="paint6_linear_612_62083" x1="78.3138" y1="73.6859" x2="96.1949" y2="73.6859"
                        gradientUnits="userSpaceOnUse">
            <stop stop-color="#97D1D1"/>
            <stop offset="0.33" stop-color="#91CFCE"/>
            <stop offset="0.76" stop-color="#81C9C5"/>
            <stop offset="1" stop-color="#75C4BE"/>
        </linearGradient>
        <linearGradient id="paint7_linear_612_62083" x1="61.7907" y1="88.522" x2="81.4024" y2="88.522"
                        gradientUnits="userSpaceOnUse">
            <stop stop-color="#F5F5F5"/>
            <stop offset="0.62" stop-color="#F2F2F2"/>
            <stop offset="1" stop-color="#EBEBEB"/>
        </linearGradient>
        <linearGradient id="paint8_linear_612_62083" x1="8218.85" y1="14540.7" x2="10476.8" y2="14540.7"
                        gradientUnits="userSpaceOnUse">
            <stop stop-color="#FADDE7"/>
            <stop offset="0.14" stop-color="#FAD9E1"/>
            <stop offset="0.49" stop-color="#F9D3D8"/>
            <stop offset="1" stop-color="#F9D1D5"/>
        </linearGradient>
        <linearGradient id="paint9_linear_612_62083" x1="6734.1" y1="6521.17" x2="6734.1" y2="5800.79"
                        gradientUnits="userSpaceOnUse">
            <stop stop-color="#E7B2A2"/>
            <stop offset="0.05" stop-color="#EBB8A7"/>
            <stop offset="0.2" stop-color="#F3C3B3"/>
            <stop offset="0.41" stop-color="#F8CAB9"/>
            <stop offset="1" stop-color="#F9CCBB"/>
        </linearGradient>
        <linearGradient id="paint10_linear_612_62083" x1="118.136" y1="125.78" x2="118.139" y2="125.78"
                        gradientUnits="userSpaceOnUse">
            <stop stop-color="#F5F5F5"/>
            <stop offset="0.62" stop-color="#F2F2F2"/>
            <stop offset="1" stop-color="#EBEBEB"/>
        </linearGradient>
        <linearGradient id="paint11_linear_612_62083" x1="10030.5" y1="23686" x2="12587.6" y2="23686"
                        gradientUnits="userSpaceOnUse">
            <stop stop-color="#F5F5F5"/>
            <stop offset="0.62" stop-color="#F2F2F2"/>
            <stop offset="1" stop-color="#EBEBEB"/>
        </linearGradient>
        <linearGradient id="paint12_linear_612_62083" x1="103.794" y1="80.583" x2="103.794" y2="99.3424"
                        gradientUnits="userSpaceOnUse">
            <stop stop-color="#BAE0E7"/>
            <stop offset="0.01" stop-color="#B4DEE4"/>
            <stop offset="0.08" stop-color="#99D4D6"/>
            <stop offset="0.16" stop-color="#84CCCB"/>
            <stop offset="0.24" stop-color="#75C6C4"/>
            <stop offset="0.34" stop-color="#6DC3BF"/>
            <stop offset="0.5" stop-color="#6AC2BE"/>
            <stop offset="0.67" stop-color="#6DC3C0"/>
            <stop offset="0.78" stop-color="#76C7C5"/>
            <stop offset="0.88" stop-color="#85CDCF"/>
            <stop offset="0.97" stop-color="#9BD5DC"/>
            <stop offset="1" stop-color="#A3D8E1"/>
        </linearGradient>
        <linearGradient id="paint13_linear_612_62083" x1="77.0618" y1="85.0322" x2="79.2364" y2="85.0322"
                        gradientUnits="userSpaceOnUse">
            <stop stop-color="#F2A7B6"/>
            <stop offset="0.54" stop-color="#EF909F"/>
            <stop offset="1" stop-color="#ED8191"/>
        </linearGradient>
        <linearGradient id="paint14_linear_612_62083" x1="617.991" y1="218.608" x2="632.523" y2="218.608"
                        gradientUnits="userSpaceOnUse">
            <stop stop-color="#F2A7B6"/>
            <stop offset="0.54" stop-color="#EF909F"/>
            <stop offset="1" stop-color="#ED8191"/>
        </linearGradient>
        <linearGradient id="paint15_linear_612_62083" x1="619.97" y1="226.285" x2="634.502" y2="226.285"
                        gradientUnits="userSpaceOnUse">
            <stop stop-color="#F2A7B6"/>
            <stop offset="0.54" stop-color="#EF909F"/>
            <stop offset="1" stop-color="#ED8191"/>
        </linearGradient>
        <linearGradient id="paint16_linear_612_62083" x1="621.994" y1="235.858" x2="636.526" y2="235.858"
                        gradientUnits="userSpaceOnUse">
            <stop stop-color="#F2A7B6"/>
            <stop offset="0.54" stop-color="#EF909F"/>
            <stop offset="1" stop-color="#ED8191"/>
        </linearGradient>
        <linearGradient id="paint17_linear_612_62083" x1="629.312" y1="265.788" x2="643.808" y2="265.788"
                        gradientUnits="userSpaceOnUse">
            <stop stop-color="#F2A7B6"/>
            <stop offset="0.54" stop-color="#EF909F"/>
            <stop offset="1" stop-color="#ED8191"/>
        </linearGradient>
        <linearGradient id="paint18_linear_612_62083" x1="632.94" y1="273.631" x2="647.467" y2="273.631"
                        gradientUnits="userSpaceOnUse">
            <stop stop-color="#F2A7B6"/>
            <stop offset="0.54" stop-color="#EF909F"/>
            <stop offset="1" stop-color="#ED8191"/>
        </linearGradient>
        <linearGradient id="paint19_linear_612_62083" x1="80.5103" y1="83.8872" x2="82.3781" y2="83.8872"
                        gradientUnits="userSpaceOnUse">
            <stop stop-color="#F2A7B6"/>
            <stop offset="0.04" stop-color="#F2A4B3"/>
            <stop offset="0.35" stop-color="#EF91A0"/>
            <stop offset="0.67" stop-color="#EE8595"/>
            <stop offset="1" stop-color="#ED8191"/>
        </linearGradient>
        <linearGradient id="paint20_linear_612_62083" x1="81.3129" y1="89.3204" x2="84.1798" y2="89.3204"
                        gradientUnits="userSpaceOnUse">
            <stop stop-color="#51B1CA"/>
            <stop offset="0.57" stop-color="#3FA4BF"/>
            <stop offset="1" stop-color="#2E99B5"/>
        </linearGradient>
        <linearGradient id="paint21_linear_612_62083" x1="3258.64" y1="3453.35" x2="3529.87" y2="3453.35"
                        gradientUnits="userSpaceOnUse">
            <stop stop-color="#51B1CA"/>
            <stop offset="0.57" stop-color="#3FA4BF"/>
            <stop offset="1" stop-color="#2E99B5"/>
        </linearGradient>
        <linearGradient id="paint22_linear_612_62083" x1="3305.56" y1="3493.91" x2="3576.8" y2="3493.91"
                        gradientUnits="userSpaceOnUse">
            <stop stop-color="#97D1D1"/>
            <stop offset="0.33" stop-color="#91CFCE"/>
            <stop offset="0.76" stop-color="#81C9C5"/>
            <stop offset="1" stop-color="#75C4BE"/>
        </linearGradient>
        <linearGradient id="paint23_linear_612_62083" x1="939.593" y1="9023" x2="939.593" y2="11433.9"
                        gradientUnits="userSpaceOnUse">
            <stop stop-color="#BAE0E7"/>
            <stop offset="0.01" stop-color="#B4DEE4"/>
            <stop offset="0.08" stop-color="#99D4D6"/>
            <stop offset="0.16" stop-color="#84CCCB"/>
            <stop offset="0.24" stop-color="#75C6C4"/>
            <stop offset="0.34" stop-color="#6DC3BF"/>
            <stop offset="0.5" stop-color="#6AC2BE"/>
            <stop offset="0.67" stop-color="#6DC3C0"/>
            <stop offset="0.78" stop-color="#76C7C5"/>
            <stop offset="0.88" stop-color="#85CDCF"/>
            <stop offset="0.97" stop-color="#9BD5DC"/>
            <stop offset="1" stop-color="#A3D8E1"/>
        </linearGradient>
        <linearGradient id="paint24_linear_612_62083" x1="9262.15" y1="3518.11" x2="9262.15" y2="6224.96"
                        gradientUnits="userSpaceOnUse">
            <stop stop-color="#51B1CA"/>
            <stop offset="0.57" stop-color="#3FA4BF"/>
            <stop offset="1" stop-color="#2E99B5"/>
        </linearGradient>
        <clipPath id="clip0_612_62083">
            <rect width="132" height="118.731" fill="white"/>
        </clipPath>
    </defs>
</svg>
